<svg class="main-svg" xmlns="http://www.w3.org/2000/svg" xmlns:xlink="http://www.w3.org/1999/xlink" width="1000" height="500" style="" viewBox="0 0 1000 500"><rect x="0" y="0" width="1000" height="500" style="fill: rgb(255, 255, 255); fill-opacity: 1;"/><defs id="defs-972b07"><g class="clips"><clipPath id="clip972b07xyplot" class="plotclip"><rect width="392.40000000000003" height="335"/></clipPath><clipPath id="clip972b07x2y2plot" class="plotclip"><rect width="392.4" height="335"/></clipPath><clipPath class="axesclip" id="clip972b07x"><rect x="78" y="0" width="392.40000000000003" height="500"/></clipPath><clipPath class="axesclip" id="clip972b07y"><rect x="0" y="98" width="1000" height="335"/></clipPath><clipPath class="axesclip" id="clip972b07xy"><rect x="78" y="98" width="392.40000000000003" height="335"/></clipPath><clipPath class="axesclip" id="clip972b07y2"><rect x="0" y="98" width="1000" height="335"/></clipPath><clipPath class="axesclip" id="clip972b07xy2"><rect x="78" y="98" width="392.40000000000003" height="335"/></clipPath><clipPath class="axesclip" id="clip972b07x2"><rect x="557.6" y="0" width="392.4" height="500"/></clipPath><clipPath class="axesclip" id="clip972b07x2y"><rect x="557.6" y="98" width="392.4" height="335"/></clipPath><clipPath class="axesclip" id="clip972b07x2y2"><rect x="557.6" y="98" width="392.4" height="335"/></clipPath></g><g class="gradients"/><g class="patterns"/></defs><g class="bglayer"/><g class="layer-below"><g class="imagelayer"/><g class="shapelayer"/></g><g class="cartesianlayer"><g class="subplot xy"><g class="layer-subplot"><g class="shapelayer"/><g class="imagelayer"/></g><g class="minor-gridlayer"><g class="x"/><g class="y"/></g><g class="gridlayer"><g class="x"><path class="xgrid crisp" transform="translate(102.62,0)" d="M0,98v335" style="stroke: rgb(211, 211, 211); stroke-opacity: 1; stroke-width: 0.5px;"/><path class="xgrid crisp" transform="translate(171.25,0)" d="M0,98v335" style="stroke: rgb(211, 211, 211); stroke-opacity: 1; stroke-width: 0.5px;"/><path class="xgrid crisp" transform="translate(239.88,0)" d="M0,98v335" style="stroke: rgb(211, 211, 211); stroke-opacity: 1; stroke-width: 0.5px;"/><path class="xgrid crisp" transform="translate(308.52,0)" d="M0,98v335" style="stroke: rgb(211, 211, 211); stroke-opacity: 1; stroke-width: 0.5px;"/><path class="xgrid crisp" transform="translate(377.15,0)" d="M0,98v335" style="stroke: rgb(211, 211, 211); stroke-opacity: 1; stroke-width: 0.5px;"/><path class="xgrid crisp" transform="translate(445.78,0)" d="M0,98v335" style="stroke: rgb(211, 211, 211); stroke-opacity: 1; stroke-width: 0.5px;"/></g><g class="y"><path class="ygrid crisp" transform="translate(0,401.36)" d="M78,0h392.40000000000003" style="stroke: rgb(211, 211, 211); stroke-opacity: 1; stroke-width: 0.5px;"/><path class="ygrid crisp" transform="translate(0,363.94)" d="M78,0h392.40000000000003" style="stroke: rgb(211, 211, 211); stroke-opacity: 1; stroke-width: 0.5px;"/><path class="ygrid crisp" transform="translate(0,326.51)" d="M78,0h392.40000000000003" style="stroke: rgb(211, 211, 211); stroke-opacity: 1; stroke-width: 0.5px;"/><path class="ygrid crisp" transform="translate(0,289.09000000000003)" d="M78,0h392.40000000000003" style="stroke: rgb(211, 211, 211); stroke-opacity: 1; stroke-width: 0.5px;"/><path class="ygrid crisp" transform="translate(0,251.67)" d="M78,0h392.40000000000003" style="stroke: rgb(211, 211, 211); stroke-opacity: 1; stroke-width: 0.5px;"/><path class="ygrid crisp" transform="translate(0,214.24)" d="M78,0h392.40000000000003" style="stroke: rgb(211, 211, 211); stroke-opacity: 1; stroke-width: 0.5px;"/><path class="ygrid crisp" transform="translate(0,176.82)" d="M78,0h392.40000000000003" style="stroke: rgb(211, 211, 211); stroke-opacity: 1; stroke-width: 0.5px;"/><path class="ygrid crisp" transform="translate(0,139.4)" d="M78,0h392.40000000000003" style="stroke: rgb(211, 211, 211); stroke-opacity: 1; stroke-width: 0.5px;"/><path class="ygrid crisp" transform="translate(0,101.97)" d="M78,0h392.40000000000003" style="stroke: rgb(211, 211, 211); stroke-opacity: 1; stroke-width: 0.5px;"/></g></g><g class="zerolinelayer"/><path class="xlines-below"/><path class="ylines-below"/><g class="overlines-below"/><g class="xaxislayer-below"/><g class="yaxislayer-below"/><g class="overaxes-below"/><g class="plot" transform="translate(78,98)" clip-path="url(#clip972b07xyplot)"><g class="scatterlayer mlayer"><g class="trace scatter trace51b075" style="stroke-miterlimit: 2; opacity: 1;"><g class="fills"/><g class="errorbars"/><g class="lines"><path class="js-line" d="M24.62,145.43L93.25,140.38L161.88,131.21L230.52,112.69L299.15,82.94L367.78,29.8" style="vector-effect: none; fill: none; stroke: rgb(31, 119, 180); stroke-opacity: 1; stroke-width: 2px; opacity: 1;"/></g><g class="points"><path class="point" transform="translate(24.62,145.43)" d="M4,0A4,4 0 1,1 0,-4A4,4 0 0,1 4,0Z" style="opacity: 1; stroke-width: 0px; fill: rgb(31, 119, 180); fill-opacity: 1;"/><path class="point" transform="translate(93.25,140.38)" d="M4,0A4,4 0 1,1 0,-4A4,4 0 0,1 4,0Z" style="opacity: 1; stroke-width: 0px; fill: rgb(31, 119, 180); fill-opacity: 1;"/><path class="point" transform="translate(161.88,131.21)" d="M4,0A4,4 0 1,1 0,-4A4,4 0 0,1 4,0Z" style="opacity: 1; stroke-width: 0px; fill: rgb(31, 119, 180); fill-opacity: 1;"/><path class="point" transform="translate(230.52,112.69)" d="M4,0A4,4 0 1,1 0,-4A4,4 0 0,1 4,0Z" style="opacity: 1; stroke-width: 0px; fill: rgb(31, 119, 180); fill-opacity: 1;"/><path class="point" transform="translate(299.15,82.94)" d="M4,0A4,4 0 1,1 0,-4A4,4 0 0,1 4,0Z" style="opacity: 1; stroke-width: 0px; fill: rgb(31, 119, 180); fill-opacity: 1;"/><path class="point" transform="translate(367.78,29.8)" d="M4,0A4,4 0 1,1 0,-4A4,4 0 0,1 4,0Z" style="opacity: 1; stroke-width: 0px; fill: rgb(31, 119, 180); fill-opacity: 1;"/></g><g class="text"/></g><g class="trace scatter trace2adbff" style="stroke-miterlimit: 2; opacity: 1;"><g class="fills"/><g class="errorbars"/><g class="lines"><path class="js-line" d="M24.62,179.68L93.25,162.84L161.88,153.48L230.52,123.92L299.15,101.27L367.78,51.69" style="vector-effect: none; fill: none; stroke: rgb(255, 127, 14); stroke-opacity: 1; stroke-width: 2px; opacity: 1;"/></g><g class="points"><path class="point" transform="translate(24.62,179.68)" d="M4,4H-4V-4H4Z" style="opacity: 1; stroke-width: 0px; fill: rgb(255, 127, 14); fill-opacity: 1;"/><path class="point" transform="translate(93.25,162.84)" d="M4,4H-4V-4H4Z" style="opacity: 1; stroke-width: 0px; fill: rgb(255, 127, 14); fill-opacity: 1;"/><path class="point" transform="translate(161.88,153.48)" d="M4,4H-4V-4H4Z" style="opacity: 1; stroke-width: 0px; fill: rgb(255, 127, 14); fill-opacity: 1;"/><path class="point" transform="translate(230.52,123.92)" d="M4,4H-4V-4H4Z" style="opacity: 1; stroke-width: 0px; fill: rgb(255, 127, 14); fill-opacity: 1;"/><path class="point" transform="translate(299.15,101.27)" d="M4,4H-4V-4H4Z" style="opacity: 1; stroke-width: 0px; fill: rgb(255, 127, 14); fill-opacity: 1;"/><path class="point" transform="translate(367.78,51.69)" d="M4,4H-4V-4H4Z" style="opacity: 1; stroke-width: 0px; fill: rgb(255, 127, 14); fill-opacity: 1;"/></g><g class="text"/></g><g class="trace scatter trace19aae9" style="stroke-miterlimit: 2; opacity: 1;"><g class="fills"/><g class="errorbars"/><g class="lines"><path class="js-line" d="M24.62,222.34L93.25,202.69L161.88,197.45L230.52,182.11L299.15,155.54L367.78,102.02" style="vector-effect: none; fill: none; stroke: rgb(44, 160, 44); stroke-opacity: 1; stroke-width: 2px; opacity: 1;"/></g><g class="points"><path class="point" transform="translate(24.62,222.34)" d="M-3.04,0l-1.52,-2.64h3.04l1.52,-2.64l1.52,2.64h3.04l-1.52,2.64l1.52,2.64h-3.04l-1.52,2.64l-1.52,-2.64h-3.04Z" style="opacity: 1; stroke-width: 0px; fill: rgb(44, 160, 44); fill-opacity: 1;"/><path class="point" transform="translate(93.25,202.69)" d="M-3.04,0l-1.52,-2.64h3.04l1.52,-2.64l1.52,2.64h3.04l-1.52,2.64l1.52,2.64h-3.04l-1.52,2.64l-1.52,-2.64h-3.04Z" style="opacity: 1; stroke-width: 0px; fill: rgb(44, 160, 44); fill-opacity: 1;"/><path class="point" transform="translate(161.88,197.45)" d="M-3.04,0l-1.52,-2.64h3.04l1.52,-2.64l1.52,2.64h3.04l-1.52,2.64l1.52,2.64h-3.04l-1.52,2.64l-1.52,-2.64h-3.04Z" style="opacity: 1; stroke-width: 0px; fill: rgb(44, 160, 44); fill-opacity: 1;"/><path class="point" transform="translate(230.52,182.11)" d="M-3.04,0l-1.52,-2.64h3.04l1.52,-2.64l1.52,2.64h3.04l-1.52,2.64l1.52,2.64h-3.04l-1.52,2.64l-1.52,-2.64h-3.04Z" style="opacity: 1; stroke-width: 0px; fill: rgb(44, 160, 44); fill-opacity: 1;"/><path class="point" transform="translate(299.15,155.54)" d="M-3.04,0l-1.52,-2.64h3.04l1.52,-2.64l1.52,2.64h3.04l-1.52,2.64l1.52,2.64h-3.04l-1.52,2.64l-1.52,-2.64h-3.04Z" style="opacity: 1; stroke-width: 0px; fill: rgb(44, 160, 44); fill-opacity: 1;"/><path class="point" transform="translate(367.78,102.02)" d="M-3.04,0l-1.52,-2.64h3.04l1.52,-2.64l1.52,2.64h3.04l-1.52,2.64l1.52,2.64h-3.04l-1.52,2.64l-1.52,-2.64h-3.04Z" style="opacity: 1; stroke-width: 0px; fill: rgb(44, 160, 44); fill-opacity: 1;"/></g><g class="text"/></g><g class="trace scatter tracec43180" style="stroke-miterlimit: 2; opacity: 1;"><g class="fills"/><g class="errorbars"/><g class="lines"><path class="js-line" d="M24.62,131.96L93.25,119.24L161.88,113.25L230.52,93.98L299.15,70.77L367.78,21.75" style="vector-effect: none; fill: none; stroke: rgb(214, 39, 40); stroke-opacity: 1; stroke-dasharray: 9px, 9px; stroke-width: 2px; opacity: 1;"/></g><g class="points"><path class="point" transform="translate(24.62,131.96)" d="M4.8,1.6H1.6V4.8H-1.6V1.6H-4.8V-1.6H-1.6V-4.8H1.6V-1.6H4.8Z" style="opacity: 1; stroke-width: 0px; fill: rgb(214, 39, 40); fill-opacity: 1;"/><path class="point" transform="translate(93.25,119.24)" d="M4.8,1.6H1.6V4.8H-1.6V1.6H-4.8V-1.6H-1.6V-4.8H1.6V-1.6H4.8Z" style="opacity: 1; stroke-width: 0px; fill: rgb(214, 39, 40); fill-opacity: 1;"/><path class="point" transform="translate(161.88,113.25)" d="M4.8,1.6H1.6V4.8H-1.6V1.6H-4.8V-1.6H-1.6V-4.8H1.6V-1.6H4.8Z" style="opacity: 1; stroke-width: 0px; fill: rgb(214, 39, 40); fill-opacity: 1;"/><path class="point" transform="translate(230.52,93.98)" d="M4.8,1.6H1.6V4.8H-1.6V1.6H-4.8V-1.6H-1.6V-4.8H1.6V-1.6H4.8Z" style="opacity: 1; stroke-width: 0px; fill: rgb(214, 39, 40); fill-opacity: 1;"/><path class="point" transform="translate(299.15,70.77)" d="M4.8,1.6H1.6V4.8H-1.6V1.6H-4.8V-1.6H-1.6V-4.8H1.6V-1.6H4.8Z" style="opacity: 1; stroke-width: 0px; fill: rgb(214, 39, 40); fill-opacity: 1;"/><path class="point" transform="translate(367.78,21.75)" d="M4.8,1.6H1.6V4.8H-1.6V1.6H-4.8V-1.6H-1.6V-4.8H1.6V-1.6H4.8Z" style="opacity: 1; stroke-width: 0px; fill: rgb(214, 39, 40); fill-opacity: 1;"/></g><g class="text"/></g></g></g><g class="overplot"/><path class="xlines-above crisp" d="M77,433.5H470.40000000000003" style="fill: none; stroke-width: 1px; stroke: rgb(36, 36, 36); stroke-opacity: 1;"/><path class="ylines-above crisp" d="M77.5,98V433" style="fill: none; stroke-width: 1px; stroke: rgb(36, 36, 36); stroke-opacity: 1;"/><g class="overlines-above"/><g class="xaxislayer-above"><path class="xtick ticks crisp" d="M0,434v5" transform="translate(102.62,0)" style="stroke: rgb(68, 68, 68); stroke-opacity: 1; stroke-width: 1px;"/><path class="xtick ticks crisp" d="M0,434v5" transform="translate(171.25,0)" style="stroke: rgb(68, 68, 68); stroke-opacity: 1; stroke-width: 1px;"/><path class="xtick ticks crisp" d="M0,434v5" transform="translate(239.88,0)" style="stroke: rgb(68, 68, 68); stroke-opacity: 1; stroke-width: 1px;"/><path class="xtick ticks crisp" d="M0,434v5" transform="translate(308.52,0)" style="stroke: rgb(68, 68, 68); stroke-opacity: 1; stroke-width: 1px;"/><path class="xtick ticks crisp" d="M0,434v5" transform="translate(377.15,0)" style="stroke: rgb(68, 68, 68); stroke-opacity: 1; stroke-width: 1px;"/><path class="xtick ticks crisp" d="M0,434v5" transform="translate(445.78,0)" style="stroke: rgb(68, 68, 68); stroke-opacity: 1; stroke-width: 1px;"/><g class="xtick"><text text-anchor="middle" x="0" y="457" transform="translate(102.62,0)" style="font-family: 'Open Sans', verdana, arial, sans-serif; font-size: 15px; fill: rgb(36, 36, 36); fill-opacity: 1; white-space: pre; opacity: 1;">JIC-0</text></g><g class="xtick"><text text-anchor="middle" x="0" y="457" transform="translate(171.25,0)" style="font-family: 'Open Sans', verdana, arial, sans-serif; font-size: 15px; fill: rgb(36, 36, 36); fill-opacity: 1; white-space: pre; opacity: 1;">JIC-s</text></g><g class="xtick"><text text-anchor="middle" x="0" y="457" transform="translate(239.88,0)" style="font-family: 'Open Sans', verdana, arial, sans-serif; font-size: 15px; fill: rgb(36, 36, 36); fill-opacity: 1; white-space: pre; opacity: 1;">JIC-m</text></g><g class="xtick"><text text-anchor="middle" x="0" y="457" transform="translate(308.52,0)" style="font-family: 'Open Sans', verdana, arial, sans-serif; font-size: 15px; fill: rgb(36, 36, 36); fill-opacity: 1; white-space: pre; opacity: 1;">JIC-l</text></g><g class="xtick"><text text-anchor="middle" x="0" y="457" transform="translate(377.15,0)" style="font-family: 'Open Sans', verdana, arial, sans-serif; font-size: 15px; fill: rgb(36, 36, 36); fill-opacity: 1; white-space: pre; opacity: 1;">JIC-a1b0</text></g><g class="xtick"><text text-anchor="middle" x="0" y="457" transform="translate(445.78,0)" style="font-family: 'Open Sans', verdana, arial, sans-serif; font-size: 15px; fill: rgb(36, 36, 36); fill-opacity: 1; white-space: pre; opacity: 1;">JIC-all</text></g></g><g class="yaxislayer-above"><path class="ytick ticks crisp" d="M77,0h-5" transform="translate(0,401.36)" style="stroke: rgb(68, 68, 68); stroke-opacity: 1; stroke-width: 1px;"/><path class="ytick ticks crisp" d="M77,0h-5" transform="translate(0,363.94)" style="stroke: rgb(68, 68, 68); stroke-opacity: 1; stroke-width: 1px;"/><path class="ytick ticks crisp" d="M77,0h-5" transform="translate(0,326.51)" style="stroke: rgb(68, 68, 68); stroke-opacity: 1; stroke-width: 1px;"/><path class="ytick ticks crisp" d="M77,0h-5" transform="translate(0,289.09000000000003)" style="stroke: rgb(68, 68, 68); stroke-opacity: 1; stroke-width: 1px;"/><path class="ytick ticks crisp" d="M77,0h-5" transform="translate(0,251.67)" style="stroke: rgb(68, 68, 68); stroke-opacity: 1; stroke-width: 1px;"/><path class="ytick ticks crisp" d="M77,0h-5" transform="translate(0,214.24)" style="stroke: rgb(68, 68, 68); stroke-opacity: 1; stroke-width: 1px;"/><path class="ytick ticks crisp" d="M77,0h-5" transform="translate(0,176.82)" style="stroke: rgb(68, 68, 68); stroke-opacity: 1; stroke-width: 1px;"/><path class="ytick ticks crisp" d="M77,0h-5" transform="translate(0,139.4)" style="stroke: rgb(68, 68, 68); stroke-opacity: 1; stroke-width: 1px;"/><path class="ytick ticks crisp" d="M77,0h-5" transform="translate(0,101.97)" style="stroke: rgb(68, 68, 68); stroke-opacity: 1; stroke-width: 1px;"/><g class="ytick"><text text-anchor="end" x="69" y="5.25" transform="translate(0,401.36)" style="font-family: 'Open Sans', verdana, arial, sans-serif; font-size: 15px; fill: rgb(36, 36, 36); fill-opacity: 1; white-space: pre; opacity: 1;">0.16</text></g><g class="ytick"><text text-anchor="end" x="69" y="5.25" style="font-family: 'Open Sans', verdana, arial, sans-serif; font-size: 15px; fill: rgb(36, 36, 36); fill-opacity: 1; white-space: pre; opacity: 1;" transform="translate(0,363.94)">0.18</text></g><g class="ytick"><text text-anchor="end" x="69" y="5.25" style="font-family: 'Open Sans', verdana, arial, sans-serif; font-size: 15px; fill: rgb(36, 36, 36); fill-opacity: 1; white-space: pre; opacity: 1;" transform="translate(0,326.51)">0.2</text></g><g class="ytick"><text text-anchor="end" x="69" y="5.25" style="font-family: 'Open Sans', verdana, arial, sans-serif; font-size: 15px; fill: rgb(36, 36, 36); fill-opacity: 1; white-space: pre; opacity: 1;" transform="translate(0,289.09000000000003)">0.22</text></g><g class="ytick"><text text-anchor="end" x="69" y="5.25" style="font-family: 'Open Sans', verdana, arial, sans-serif; font-size: 15px; fill: rgb(36, 36, 36); fill-opacity: 1; white-space: pre; opacity: 1;" transform="translate(0,251.67)">0.24</text></g><g class="ytick"><text text-anchor="end" x="69" y="5.25" style="font-family: 'Open Sans', verdana, arial, sans-serif; font-size: 15px; fill: rgb(36, 36, 36); fill-opacity: 1; white-space: pre; opacity: 1;" transform="translate(0,214.24)">0.26</text></g><g class="ytick"><text text-anchor="end" x="69" y="5.25" style="font-family: 'Open Sans', verdana, arial, sans-serif; font-size: 15px; fill: rgb(36, 36, 36); fill-opacity: 1; white-space: pre; opacity: 1;" transform="translate(0,176.82)">0.28</text></g><g class="ytick"><text text-anchor="end" x="69" y="5.25" style="font-family: 'Open Sans', verdana, arial, sans-serif; font-size: 15px; fill: rgb(36, 36, 36); fill-opacity: 1; white-space: pre; opacity: 1;" transform="translate(0,139.4)">0.3</text></g><g class="ytick"><text text-anchor="end" x="69" y="5.25" style="font-family: 'Open Sans', verdana, arial, sans-serif; font-size: 15px; fill: rgb(36, 36, 36); fill-opacity: 1; white-space: pre; opacity: 1;" transform="translate(0,101.97)">0.32</text></g></g><g class="overaxes-above"/></g><g class="subplot x2y2"><g class="layer-subplot"><g class="shapelayer"/><g class="imagelayer"/></g><g class="minor-gridlayer"><g class="x2"/><g class="y2"/></g><g class="gridlayer"><g class="x2"><path class="x2grid crisp" transform="translate(582.22,0)" d="M0,98v335" style="stroke: rgb(211, 211, 211); stroke-opacity: 1; stroke-width: 0.5px;"/><path class="x2grid crisp" transform="translate(650.85,0)" d="M0,98v335" style="stroke: rgb(211, 211, 211); stroke-opacity: 1; stroke-width: 0.5px;"/><path class="x2grid crisp" transform="translate(719.48,0)" d="M0,98v335" style="stroke: rgb(211, 211, 211); stroke-opacity: 1; stroke-width: 0.5px;"/><path class="x2grid crisp" transform="translate(788.12,0)" d="M0,98v335" style="stroke: rgb(211, 211, 211); stroke-opacity: 1; stroke-width: 0.5px;"/><path class="x2grid crisp" transform="translate(856.75,0)" d="M0,98v335" style="stroke: rgb(211, 211, 211); stroke-opacity: 1; stroke-width: 0.5px;"/><path class="x2grid crisp" transform="translate(925.38,0)" d="M0,98v335" style="stroke: rgb(211, 211, 211); stroke-opacity: 1; stroke-width: 0.5px;"/></g><g class="y2"><path class="y2grid crisp" transform="translate(0,401.36)" d="M557.6,0h392.4" style="stroke: rgb(211, 211, 211); stroke-opacity: 1; stroke-width: 0.5px;"/><path class="y2grid crisp" transform="translate(0,363.94)" d="M557.6,0h392.4" style="stroke: rgb(211, 211, 211); stroke-opacity: 1; stroke-width: 0.5px;"/><path class="y2grid crisp" transform="translate(0,326.51)" d="M557.6,0h392.4" style="stroke: rgb(211, 211, 211); stroke-opacity: 1; stroke-width: 0.5px;"/><path class="y2grid crisp" transform="translate(0,289.09000000000003)" d="M557.6,0h392.4" style="stroke: rgb(211, 211, 211); stroke-opacity: 1; stroke-width: 0.5px;"/><path class="y2grid crisp" transform="translate(0,251.67)" d="M557.6,0h392.4" style="stroke: rgb(211, 211, 211); stroke-opacity: 1; stroke-width: 0.5px;"/><path class="y2grid crisp" transform="translate(0,214.24)" d="M557.6,0h392.4" style="stroke: rgb(211, 211, 211); stroke-opacity: 1; stroke-width: 0.5px;"/><path class="y2grid crisp" transform="translate(0,176.82)" d="M557.6,0h392.4" style="stroke: rgb(211, 211, 211); stroke-opacity: 1; stroke-width: 0.5px;"/><path class="y2grid crisp" transform="translate(0,139.4)" d="M557.6,0h392.4" style="stroke: rgb(211, 211, 211); stroke-opacity: 1; stroke-width: 0.5px;"/><path class="y2grid crisp" transform="translate(0,101.97)" d="M557.6,0h392.4" style="stroke: rgb(211, 211, 211); stroke-opacity: 1; stroke-width: 0.5px;"/></g></g><g class="zerolinelayer"/><path class="xlines-below"/><path class="ylines-below"/><g class="overlines-below"/><g class="xaxislayer-below"/><g class="yaxislayer-below"/><g class="overaxes-below"/><g class="plot" transform="translate(557.6,98)" clip-path="url(#clip972b07x2y2plot)"><g class="scatterlayer mlayer"><g class="trace scatter trace20e0e7" style="stroke-miterlimit: 2; opacity: 1;"><g class="fills"/><g class="errorbars"/><g class="lines"><path class="js-line" d="M24.62,212.61L93.25,213.92L161.88,193.15L230.52,157.22L299.15,148.05L367.78,104.08" style="vector-effect: none; fill: none; stroke: rgb(31, 119, 180); stroke-opacity: 1; stroke-width: 2px; opacity: 1;"/></g><g class="points"><path class="point" transform="translate(24.62,212.61)" d="M4,0A4,4 0 1,1 0,-4A4,4 0 0,1 4,0Z" style="opacity: 1; stroke-width: 0px; fill: rgb(31, 119, 180); fill-opacity: 1;"/><path class="point" transform="translate(93.25,213.92)" d="M4,0A4,4 0 1,1 0,-4A4,4 0 0,1 4,0Z" style="opacity: 1; stroke-width: 0px; fill: rgb(31, 119, 180); fill-opacity: 1;"/><path class="point" transform="translate(161.88,193.15)" d="M4,0A4,4 0 1,1 0,-4A4,4 0 0,1 4,0Z" style="opacity: 1; stroke-width: 0px; fill: rgb(31, 119, 180); fill-opacity: 1;"/><path class="point" transform="translate(230.52,157.22)" d="M4,0A4,4 0 1,1 0,-4A4,4 0 0,1 4,0Z" style="opacity: 1; stroke-width: 0px; fill: rgb(31, 119, 180); fill-opacity: 1;"/><path class="point" transform="translate(299.15,148.05)" d="M4,0A4,4 0 1,1 0,-4A4,4 0 0,1 4,0Z" style="opacity: 1; stroke-width: 0px; fill: rgb(31, 119, 180); fill-opacity: 1;"/><path class="point" transform="translate(367.78,104.08)" d="M4,0A4,4 0 1,1 0,-4A4,4 0 0,1 4,0Z" style="opacity: 1; stroke-width: 0px; fill: rgb(31, 119, 180); fill-opacity: 1;"/></g><g class="text"/></g><g class="trace scatter trace842090" style="stroke-miterlimit: 2; opacity: 1;"><g class="fills"/><g class="errorbars"/><g class="lines"><path class="js-line" d="M24.62,226.27L93.25,231.69L161.88,235.81L230.52,188.84L299.15,177.99L367.78,144.12" style="vector-effect: none; fill: none; stroke: rgb(255, 127, 14); stroke-opacity: 1; stroke-width: 2px; opacity: 1;"/></g><g class="points"><path class="point" transform="translate(24.62,226.27)" d="M4,4H-4V-4H4Z" style="opacity: 1; stroke-width: 0px; fill: rgb(255, 127, 14); fill-opacity: 1;"/><path class="point" transform="translate(93.25,231.69)" d="M4,4H-4V-4H4Z" style="opacity: 1; stroke-width: 0px; fill: rgb(255, 127, 14); fill-opacity: 1;"/><path class="point" transform="translate(161.88,235.81)" d="M4,4H-4V-4H4Z" style="opacity: 1; stroke-width: 0px; fill: rgb(255, 127, 14); fill-opacity: 1;"/><path class="point" transform="translate(230.52,188.84)" d="M4,4H-4V-4H4Z" style="opacity: 1; stroke-width: 0px; fill: rgb(255, 127, 14); fill-opacity: 1;"/><path class="point" transform="translate(299.15,177.99)" d="M4,4H-4V-4H4Z" style="opacity: 1; stroke-width: 0px; fill: rgb(255, 127, 14); fill-opacity: 1;"/><path class="point" transform="translate(367.78,144.12)" d="M4,4H-4V-4H4Z" style="opacity: 1; stroke-width: 0px; fill: rgb(255, 127, 14); fill-opacity: 1;"/></g><g class="text"/></g><g class="trace scatter trace910644" style="stroke-miterlimit: 2; opacity: 1;"><g class="fills"/><g class="errorbars"/><g class="lines"><path class="js-line" d="M24.62,311.03L93.25,313.46L161.88,289.89L230.52,252.09L299.15,241.42L367.78,201.19" style="vector-effect: none; fill: none; stroke: rgb(44, 160, 44); stroke-opacity: 1; stroke-width: 2px; opacity: 1;"/></g><g class="points"><path class="point" transform="translate(24.62,311.03)" d="M-3.04,0l-1.52,-2.64h3.04l1.52,-2.64l1.52,2.64h3.04l-1.52,2.64l1.52,2.64h-3.04l-1.52,2.64l-1.52,-2.64h-3.04Z" style="opacity: 1; stroke-width: 0px; fill: rgb(44, 160, 44); fill-opacity: 1;"/><path class="point" transform="translate(93.25,313.46)" d="M-3.04,0l-1.52,-2.64h3.04l1.52,-2.64l1.52,2.64h3.04l-1.52,2.64l1.52,2.64h-3.04l-1.52,2.64l-1.52,-2.64h-3.04Z" style="opacity: 1; stroke-width: 0px; fill: rgb(44, 160, 44); fill-opacity: 1;"/><path class="point" transform="translate(161.88,289.89)" d="M-3.04,0l-1.52,-2.64h3.04l1.52,-2.64l1.52,2.64h3.04l-1.52,2.64l1.52,2.64h-3.04l-1.52,2.64l-1.52,-2.64h-3.04Z" style="opacity: 1; stroke-width: 0px; fill: rgb(44, 160, 44); fill-opacity: 1;"/><path class="point" transform="translate(230.52,252.09)" d="M-3.04,0l-1.52,-2.64h3.04l1.52,-2.64l1.52,2.64h3.04l-1.52,2.64l1.52,2.64h-3.04l-1.52,2.64l-1.52,-2.64h-3.04Z" style="opacity: 1; stroke-width: 0px; fill: rgb(44, 160, 44); fill-opacity: 1;"/><path class="point" transform="translate(299.15,241.42)" d="M-3.04,0l-1.52,-2.64h3.04l1.52,-2.64l1.52,2.64h3.04l-1.52,2.64l1.52,2.64h-3.04l-1.52,2.64l-1.52,-2.64h-3.04Z" style="opacity: 1; stroke-width: 0px; fill: rgb(44, 160, 44); fill-opacity: 1;"/><path class="point" transform="translate(367.78,201.19)" d="M-3.04,0l-1.52,-2.64h3.04l1.52,-2.64l1.52,2.64h3.04l-1.52,2.64l1.52,2.64h-3.04l-1.52,2.64l-1.52,-2.64h-3.04Z" style="opacity: 1; stroke-width: 0px; fill: rgb(44, 160, 44); fill-opacity: 1;"/></g><g class="text"/></g><g class="trace scatter trace9865ec" style="stroke-miterlimit: 2; opacity: 1;"><g class="fills"/><g class="errorbars"/><g class="lines"><path class="js-line" d="M24.62,199.7L93.25,203.25L161.88,189.59L230.52,153.29L299.15,143.75L367.78,107.64" style="vector-effect: none; fill: none; stroke: rgb(214, 39, 40); stroke-opacity: 1; stroke-dasharray: 9px, 9px; stroke-width: 2px; opacity: 1;"/></g><g class="points"><path class="point" transform="translate(24.62,199.7)" d="M4.8,1.6H1.6V4.8H-1.6V1.6H-4.8V-1.6H-1.6V-4.8H1.6V-1.6H4.8Z" style="opacity: 1; stroke-width: 0px; fill: rgb(214, 39, 40); fill-opacity: 1;"/><path class="point" transform="translate(93.25,203.25)" d="M4.8,1.6H1.6V4.8H-1.6V1.6H-4.8V-1.6H-1.6V-4.8H1.6V-1.6H4.8Z" style="opacity: 1; stroke-width: 0px; fill: rgb(214, 39, 40); fill-opacity: 1;"/><path class="point" transform="translate(161.88,189.59)" d="M4.8,1.6H1.6V4.8H-1.6V1.6H-4.8V-1.6H-1.6V-4.8H1.6V-1.6H4.8Z" style="opacity: 1; stroke-width: 0px; fill: rgb(214, 39, 40); fill-opacity: 1;"/><path class="point" transform="translate(230.52,153.29)" d="M4.8,1.6H1.6V4.8H-1.6V1.6H-4.8V-1.6H-1.6V-4.8H1.6V-1.6H4.8Z" style="opacity: 1; stroke-width: 0px; fill: rgb(214, 39, 40); fill-opacity: 1;"/><path class="point" transform="translate(299.15,143.75)" d="M4.8,1.6H1.6V4.8H-1.6V1.6H-4.8V-1.6H-1.6V-4.8H1.6V-1.6H4.8Z" style="opacity: 1; stroke-width: 0px; fill: rgb(214, 39, 40); fill-opacity: 1;"/><path class="point" transform="translate(367.78,107.64)" d="M4.8,1.6H1.6V4.8H-1.6V1.6H-4.8V-1.6H-1.6V-4.8H1.6V-1.6H4.8Z" style="opacity: 1; stroke-width: 0px; fill: rgb(214, 39, 40); fill-opacity: 1;"/></g><g class="text"/></g></g></g><g class="overplot"/><path class="xlines-above crisp" d="M556.6,433.5H950" style="fill: none; stroke-width: 1px; stroke: rgb(36, 36, 36); stroke-opacity: 1;"/><path class="ylines-above crisp" d="M557.1,98V433" style="fill: none; stroke-width: 1px; stroke: rgb(36, 36, 36); stroke-opacity: 1;"/><g class="overlines-above"/><g class="xaxislayer-above"><path class="x2tick ticks crisp" d="M0,434v5" transform="translate(582.22,0)" style="stroke: rgb(68, 68, 68); stroke-opacity: 1; stroke-width: 1px;"/><path class="x2tick ticks crisp" d="M0,434v5" transform="translate(650.85,0)" style="stroke: rgb(68, 68, 68); stroke-opacity: 1; stroke-width: 1px;"/><path class="x2tick ticks crisp" d="M0,434v5" transform="translate(719.48,0)" style="stroke: rgb(68, 68, 68); stroke-opacity: 1; stroke-width: 1px;"/><path class="x2tick ticks crisp" d="M0,434v5" transform="translate(788.12,0)" style="stroke: rgb(68, 68, 68); stroke-opacity: 1; stroke-width: 1px;"/><path class="x2tick ticks crisp" d="M0,434v5" transform="translate(856.75,0)" style="stroke: rgb(68, 68, 68); stroke-opacity: 1; stroke-width: 1px;"/><path class="x2tick ticks crisp" d="M0,434v5" transform="translate(925.38,0)" style="stroke: rgb(68, 68, 68); stroke-opacity: 1; stroke-width: 1px;"/><g class="x2tick"><text text-anchor="middle" x="0" y="457" transform="translate(582.22,0)" style="font-family: 'Open Sans', verdana, arial, sans-serif; font-size: 15px; fill: rgb(36, 36, 36); fill-opacity: 1; white-space: pre; opacity: 1;">JIC-0</text></g><g class="x2tick"><text text-anchor="middle" x="0" y="457" transform="translate(650.85,0)" style="font-family: 'Open Sans', verdana, arial, sans-serif; font-size: 15px; fill: rgb(36, 36, 36); fill-opacity: 1; white-space: pre; opacity: 1;">JIC-s</text></g><g class="x2tick"><text text-anchor="middle" x="0" y="457" transform="translate(719.48,0)" style="font-family: 'Open Sans', verdana, arial, sans-serif; font-size: 15px; fill: rgb(36, 36, 36); fill-opacity: 1; white-space: pre; opacity: 1;">JIC-m</text></g><g class="x2tick"><text text-anchor="middle" x="0" y="457" transform="translate(788.12,0)" style="font-family: 'Open Sans', verdana, arial, sans-serif; font-size: 15px; fill: rgb(36, 36, 36); fill-opacity: 1; white-space: pre; opacity: 1;">JIC-l</text></g><g class="x2tick"><text text-anchor="middle" x="0" y="457" transform="translate(856.75,0)" style="font-family: 'Open Sans', verdana, arial, sans-serif; font-size: 15px; fill: rgb(36, 36, 36); fill-opacity: 1; white-space: pre; opacity: 1;">JIC-a1b0</text></g><g class="x2tick"><text text-anchor="middle" x="0" y="457" transform="translate(925.38,0)" style="font-family: 'Open Sans', verdana, arial, sans-serif; font-size: 15px; fill: rgb(36, 36, 36); fill-opacity: 1; white-space: pre; opacity: 1;">JIC-all</text></g></g><g class="yaxislayer-above"><path class="y2tick ticks crisp" d="M556.6,0h-5" transform="translate(0,401.36)" style="stroke: rgb(68, 68, 68); stroke-opacity: 1; stroke-width: 1px;"/><path class="y2tick ticks crisp" d="M556.6,0h-5" transform="translate(0,363.94)" style="stroke: rgb(68, 68, 68); stroke-opacity: 1; stroke-width: 1px;"/><path class="y2tick ticks crisp" d="M556.6,0h-5" transform="translate(0,326.51)" style="stroke: rgb(68, 68, 68); stroke-opacity: 1; stroke-width: 1px;"/><path class="y2tick ticks crisp" d="M556.6,0h-5" transform="translate(0,289.09000000000003)" style="stroke: rgb(68, 68, 68); stroke-opacity: 1; stroke-width: 1px;"/><path class="y2tick ticks crisp" d="M556.6,0h-5" transform="translate(0,251.67)" style="stroke: rgb(68, 68, 68); stroke-opacity: 1; stroke-width: 1px;"/><path class="y2tick ticks crisp" d="M556.6,0h-5" transform="translate(0,214.24)" style="stroke: rgb(68, 68, 68); stroke-opacity: 1; stroke-width: 1px;"/><path class="y2tick ticks crisp" d="M556.6,0h-5" transform="translate(0,176.82)" style="stroke: rgb(68, 68, 68); stroke-opacity: 1; stroke-width: 1px;"/><path class="y2tick ticks crisp" d="M556.6,0h-5" transform="translate(0,139.4)" style="stroke: rgb(68, 68, 68); stroke-opacity: 1; stroke-width: 1px;"/><path class="y2tick ticks crisp" d="M556.6,0h-5" transform="translate(0,101.97)" style="stroke: rgb(68, 68, 68); stroke-opacity: 1; stroke-width: 1px;"/></g><g class="overaxes-above"/></g></g><g class="polarlayer"/><g class="smithlayer"/><g class="ternarylayer"/><g class="geolayer"/><g class="funnelarealayer"/><g class="pielayer"/><g class="iciclelayer"/><g class="treemaplayer"/><g class="sunburstlayer"/><g class="glimages"/><defs id="topdefs-972b07"><g class="clips"/><clipPath id="legend972b07"><rect width="476" height="34" x="1" y="1"/></clipPath></defs><g class="layer-above"><g class="imagelayer"/><g class="shapelayer"/></g><g class="infolayer"><g class="legend" pointer-events="all" transform="translate(275,11.750000000000028)"><rect class="bg" shape-rendering="crispEdges" style="stroke: rgb(255, 255, 255); stroke-opacity: 1; fill: rgb(255, 255, 255); fill-opacity: 1; stroke-width: 1px;" width="477" height="35" x="0.5" y="0.5"/><g class="scrollbox" transform="" clip-path="url(#legend972b07)"><text class="legendtitletext" text-anchor="start" x="3" y="24.400000000000002" style="font-family: 'Open Sans', verdana, arial, sans-serif; font-size: 18px; fill: rgb(36, 36, 36); fill-opacity: 1; white-space: pre;">Metrics</text><g class="groups"><g class="traces" transform="translate(69,17.25)" style="opacity: 1;"><text class="legendtext" text-anchor="start" x="40" y="5.85" style="font-family: 'Open Sans', verdana, arial, sans-serif; font-size: 15px; fill: rgb(36, 36, 36); fill-opacity: 1; white-space: pre;">BLEU</text><g class="layers" style="opacity: 1;"><g class="legendfill"/><g class="legendlines"><path class="js-line" d="M5,0h30" style="fill: none; stroke: rgb(31, 119, 180); stroke-opacity: 1; stroke-width: 2px;"/></g><g class="legendsymbols"><g class="legendpoints"><path class="scatterpts" transform="translate(20,0)" d="M4,0A4,4 0 1,1 0,-4A4,4 0 0,1 4,0Z" style="opacity: 1; stroke-width: 0px; fill: rgb(31, 119, 180); fill-opacity: 1;"/></g></g></g><rect class="legendtoggle" x="0" y="-11.25" width="81.6875" height="22.5" style="fill: rgb(0, 0, 0); fill-opacity: 0;"/></g><g class="traces" transform="translate(153.1875,17.25)" style="opacity: 1;"><text class="legendtext" text-anchor="start" x="40" y="5.85" style="font-family: 'Open Sans', verdana, arial, sans-serif; font-size: 15px; fill: rgb(36, 36, 36); fill-opacity: 1; white-space: pre;">METEOR</text><g class="layers" style="opacity: 1;"><g class="legendfill"/><g class="legendlines"><path class="js-line" d="M5,0h30" style="fill: none; stroke: rgb(255, 127, 14); stroke-opacity: 1; stroke-width: 2px;"/></g><g class="legendsymbols"><g class="legendpoints"><path class="scatterpts" transform="translate(20,0)" d="M4,4H-4V-4H4Z" style="opacity: 1; stroke-width: 0px; fill: rgb(255, 127, 14); fill-opacity: 1;"/></g></g></g><rect class="legendtoggle" x="0" y="-11.25" width="106.84375" height="22.5" style="fill: rgb(0, 0, 0); fill-opacity: 0;"/></g><g class="traces" transform="translate(262.53125,17.25)" style="opacity: 1;"><text class="legendtext" text-anchor="start" x="40" y="5.85" style="font-family: 'Open Sans', verdana, arial, sans-serif; font-size: 15px; fill: rgb(36, 36, 36); fill-opacity: 1; white-space: pre;">ROUGE-L</text><g class="layers" style="opacity: 1;"><g class="legendfill"/><g class="legendlines"><path class="js-line" d="M5,0h30" style="fill: none; stroke: rgb(44, 160, 44); stroke-opacity: 1; stroke-width: 2px;"/></g><g class="legendsymbols"><g class="legendpoints"><path class="scatterpts" transform="translate(20,0)" d="M-3.04,0l-1.52,-2.64h3.04l1.52,-2.64l1.52,2.64h3.04l-1.52,2.64l1.52,2.64h-3.04l-1.52,2.64l-1.52,-2.64h-3.04Z" style="opacity: 1; stroke-width: 0px; fill: rgb(44, 160, 44); fill-opacity: 1;"/></g></g></g><rect class="legendtoggle" x="0" y="-11.25" width="110.84375" height="22.5" style="fill: rgb(0, 0, 0); fill-opacity: 0;"/></g><g class="traces" transform="translate(375.875,17.25)" style="opacity: 1;"><text class="legendtext" text-anchor="start" x="40" y="5.85" style="font-family: 'Open Sans', verdana, arial, sans-serif; font-size: 15px; fill: rgb(36, 36, 36); fill-opacity: 1; white-space: pre;">Average</text><g class="layers" style="opacity: 1;"><g class="legendfill"/><g class="legendlines"><path class="js-line" d="M5,0h30" style="fill: none; stroke: rgb(214, 39, 40); stroke-opacity: 1; stroke-dasharray: 9px, 9px; stroke-width: 2px;"/></g><g class="legendsymbols"><g class="legendpoints"><path class="scatterpts" transform="translate(20,0)" d="M4.8,1.6H1.6V4.8H-1.6V1.6H-4.8V-1.6H-1.6V-4.8H1.6V-1.6H4.8Z" style="opacity: 1; stroke-width: 0px; fill: rgb(214, 39, 40); fill-opacity: 1;"/></g></g></g><rect class="legendtoggle" x="0" y="-11.25" width="98.109375" height="22.5" style="fill: rgb(0, 0, 0); fill-opacity: 0;"/></g></g></g><rect class="scrollbar" rx="20" ry="3" width="0" height="0" style="fill: rgb(128, 139, 164); fill-opacity: 1;" x="0" y="0"/></g><g class="g-gtitle"/><g class="g-xtitle"><text class="xtitle" x="274.20000000000005" y="487.1" text-anchor="middle" style="font-family: 'Open Sans', verdana, arial, sans-serif; font-size: 18px; fill: rgb(36, 36, 36); opacity: 1; font-weight: normal; white-space: pre;">Dataset Splits</text></g><g class="g-x2title"/><g class="g-ytitle" transform="translate(3.302734375,0)"><text class="ytitle" transform="rotate(-90,12.696875000000006,265.5)" x="12.696875000000006" y="265.5" text-anchor="middle" style="font-family: 'Open Sans', verdana, arial, sans-serif; font-size: 18px; fill: rgb(36, 36, 36); opacity: 1; font-weight: normal; white-space: pre;">Score</text></g><g class="g-y2title"/><g class="annotation" data-index="0" style="opacity: 1;"><g class="annotation-text-g" transform="rotate(0,274.20000000000005,85)"><g class="cursor-pointer" transform="translate(181,72)"><rect class="bg" x="0.5" y="0.5" width="185" height="25" style="stroke-width: 1px; stroke: rgb(0, 0, 0); stroke-opacity: 0; fill: rgb(0, 0, 0); fill-opacity: 0;"/><text class="annotation-text" text-anchor="middle" x="92.609375" y="20" style="font-family: 'Open Sans', verdana, arial, sans-serif; font-size: 20px; fill: rgb(36, 36, 36); fill-opacity: 1; white-space: pre;">LLaMA 3 8B Instruct</text></g></g></g><g class="annotation" data-index="1" style="opacity: 1;"><g class="annotation-text-g" transform="rotate(0,753.8000000000001,85)"><g class="cursor-pointer" transform="translate(650,72)"><rect class="bg" x="0.5" y="0.5" width="206" height="25" style="stroke-width: 1px; stroke: rgb(0, 0, 0); stroke-opacity: 0; fill: rgb(0, 0, 0); fill-opacity: 0;"/><text class="annotation-text" text-anchor="middle" x="103.703125" y="20" style="font-family: 'Open Sans', verdana, arial, sans-serif; font-size: 20px; fill: rgb(36, 36, 36); fill-opacity: 1; white-space: pre;">Mistral 7B Instruct v0.3</text></g></g></g></g></svg>