<svg class="main-svg" xmlns="http://www.w3.org/2000/svg" xmlns:xlink="http://www.w3.org/1999/xlink" width="1000" height="500" style="" viewBox="0 0 1000 500"><rect x="0" y="0" width="1000" height="500" style="fill: rgb(255, 255, 255); fill-opacity: 1;"/><defs id="defs-1d17f2"><g class="clips"><clipPath id="clip1d17f2xyplot" class="plotclip"><rect width="396.45" height="335"/></clipPath><clipPath id="clip1d17f2x2y2plot" class="plotclip"><rect width="396.45" height="335"/></clipPath><clipPath class="axesclip" id="clip1d17f2x"><rect x="69" y="0" width="396.45" height="500"/></clipPath><clipPath class="axesclip" id="clip1d17f2y"><rect x="0" y="98" width="1000" height="335"/></clipPath><clipPath class="axesclip" id="clip1d17f2xy"><rect x="69" y="98" width="396.45" height="335"/></clipPath><clipPath class="axesclip" id="clip1d17f2y2"><rect x="0" y="98" width="1000" height="335"/></clipPath><clipPath class="axesclip" id="clip1d17f2xy2"><rect x="69" y="98" width="396.45" height="335"/></clipPath><clipPath class="axesclip" id="clip1d17f2x2"><rect x="553.55" y="0" width="396.45" height="500"/></clipPath><clipPath class="axesclip" id="clip1d17f2x2y"><rect x="553.55" y="98" width="396.45" height="335"/></clipPath><clipPath class="axesclip" id="clip1d17f2x2y2"><rect x="553.55" y="98" width="396.45" height="335"/></clipPath></g><g class="gradients"/><g class="patterns"/></defs><g class="bglayer"/><g class="layer-below"><g class="imagelayer"/><g class="shapelayer"/></g><g class="cartesianlayer"><g class="subplot xy"><g class="layer-subplot"><g class="shapelayer"/><g class="imagelayer"/></g><g class="minor-gridlayer"><g class="x"/><g class="y"/></g><g class="gridlayer"><g class="x"><path class="xgrid crisp" transform="translate(93.82,0)" d="M0,98v335" style="stroke: rgb(211, 211, 211); stroke-opacity: 1; stroke-width: 0.5px;"/><path class="xgrid crisp" transform="translate(180.51999999999998,0)" d="M0,98v335" style="stroke: rgb(211, 211, 211); stroke-opacity: 1; stroke-width: 0.5px;"/><path class="xgrid crisp" transform="translate(267.23,0)" d="M0,98v335" style="stroke: rgb(211, 211, 211); stroke-opacity: 1; stroke-width: 0.5px;"/><path class="xgrid crisp" transform="translate(353.93,0)" d="M0,98v335" style="stroke: rgb(211, 211, 211); stroke-opacity: 1; stroke-width: 0.5px;"/><path class="xgrid crisp" transform="translate(440.63,0)" d="M0,98v335" style="stroke: rgb(211, 211, 211); stroke-opacity: 1; stroke-width: 0.5px;"/></g><g class="y"><path class="ygrid crisp" transform="translate(0,426.2)" d="M69,0h396.45" style="stroke: rgb(211, 211, 211); stroke-opacity: 1; stroke-width: 0.5px;"/><path class="ygrid crisp" transform="translate(0,358.25)" d="M69,0h396.45" style="stroke: rgb(211, 211, 211); stroke-opacity: 1; stroke-width: 0.5px;"/><path class="ygrid crisp" transform="translate(0,290.3)" d="M69,0h396.45" style="stroke: rgb(211, 211, 211); stroke-opacity: 1; stroke-width: 0.5px;"/><path class="ygrid crisp" transform="translate(0,222.35)" d="M69,0h396.45" style="stroke: rgb(211, 211, 211); stroke-opacity: 1; stroke-width: 0.5px;"/><path class="ygrid crisp" transform="translate(0,154.4)" d="M69,0h396.45" style="stroke: rgb(211, 211, 211); stroke-opacity: 1; stroke-width: 0.5px;"/></g></g><g class="zerolinelayer"/><path class="xlines-below"/><path class="ylines-below"/><g class="overlines-below"/><g class="xaxislayer-below"/><g class="yaxislayer-below"/><g class="overaxes-below"/><g class="plot" transform="translate(69,98)" clip-path="url(#clip1d17f2xyplot)"><g class="scatterlayer mlayer"><g class="trace scatter trace4a8c6f" style="stroke-miterlimit: 2; opacity: 1;"><g class="fills"/><g class="errorbars"/><g class="lines"><path class="js-line" d="M24.82,72.71L111.52,74.07L198.23,73.39L284.93,72.71L371.63,46.21" style="vector-effect: none; fill: none; stroke: rgb(31, 119, 180); stroke-opacity: 1; stroke-width: 2px; opacity: 1;"/></g><g class="points"><path class="point" transform="translate(24.82,72.71)" d="M4,0A4,4 0 1,1 0,-4A4,4 0 0,1 4,0Z" style="opacity: 1; stroke-width: 0px; fill: rgb(31, 119, 180); fill-opacity: 1;"/><path class="point" transform="translate(111.52,74.07)" d="M4,0A4,4 0 1,1 0,-4A4,4 0 0,1 4,0Z" style="opacity: 1; stroke-width: 0px; fill: rgb(31, 119, 180); fill-opacity: 1;"/><path class="point" transform="translate(198.23,73.39)" d="M4,0A4,4 0 1,1 0,-4A4,4 0 0,1 4,0Z" style="opacity: 1; stroke-width: 0px; fill: rgb(31, 119, 180); fill-opacity: 1;"/><path class="point" transform="translate(284.93,72.71)" d="M4,0A4,4 0 1,1 0,-4A4,4 0 0,1 4,0Z" style="opacity: 1; stroke-width: 0px; fill: rgb(31, 119, 180); fill-opacity: 1;"/><path class="point" transform="translate(371.63,46.21)" d="M4,0A4,4 0 1,1 0,-4A4,4 0 0,1 4,0Z" style="opacity: 1; stroke-width: 0px; fill: rgb(31, 119, 180); fill-opacity: 1;"/></g><g class="text"/></g><g class="trace scatter trace334e3d" style="stroke-miterlimit: 2; opacity: 1;"><g class="fills"/><g class="errorbars"/><g class="lines"><path class="js-line" d="M24.82,150.17L111.52,147.46L198.23,146.1L284.93,149.49L371.63,106.69" style="vector-effect: none; fill: none; stroke: rgb(255, 127, 14); stroke-opacity: 1; stroke-width: 2px; opacity: 1;"/></g><g class="points"><path class="point" transform="translate(24.82,150.17)" d="M4,4H-4V-4H4Z" style="opacity: 1; stroke-width: 0px; fill: rgb(255, 127, 14); fill-opacity: 1;"/><path class="point" transform="translate(111.52,147.46)" d="M4,4H-4V-4H4Z" style="opacity: 1; stroke-width: 0px; fill: rgb(255, 127, 14); fill-opacity: 1;"/><path class="point" transform="translate(198.23,146.1)" d="M4,4H-4V-4H4Z" style="opacity: 1; stroke-width: 0px; fill: rgb(255, 127, 14); fill-opacity: 1;"/><path class="point" transform="translate(284.93,149.49)" d="M4,4H-4V-4H4Z" style="opacity: 1; stroke-width: 0px; fill: rgb(255, 127, 14); fill-opacity: 1;"/><path class="point" transform="translate(371.63,106.69)" d="M4,4H-4V-4H4Z" style="opacity: 1; stroke-width: 0px; fill: rgb(255, 127, 14); fill-opacity: 1;"/></g><g class="text"/></g><g class="trace scatter traceea994c" style="stroke-miterlimit: 2; opacity: 1;"><g class="fills"/><g class="errorbars"/><g class="lines"><path class="js-line" d="M24.82,180.75L198.23,179.39L284.93,181.43L371.63,214.04" style="vector-effect: none; fill: none; stroke: rgb(44, 160, 44); stroke-opacity: 1; stroke-width: 2px; opacity: 1;"/></g><g class="points"><path class="point" transform="translate(24.82,180.75)" d="M-4.62,2H4.62L0,-4Z" style="opacity: 1; stroke-width: 0px; fill: rgb(44, 160, 44); fill-opacity: 1;"/><path class="point" transform="translate(111.52,180.07)" d="M-4.62,2H4.62L0,-4Z" style="opacity: 1; stroke-width: 0px; fill: rgb(44, 160, 44); fill-opacity: 1;"/><path class="point" transform="translate(198.23,179.39)" d="M-4.62,2H4.62L0,-4Z" style="opacity: 1; stroke-width: 0px; fill: rgb(44, 160, 44); fill-opacity: 1;"/><path class="point" transform="translate(284.93,181.43)" d="M-4.62,2H4.62L0,-4Z" style="opacity: 1; stroke-width: 0px; fill: rgb(44, 160, 44); fill-opacity: 1;"/><path class="point" transform="translate(371.63,214.04)" d="M-4.62,2H4.62L0,-4Z" style="opacity: 1; stroke-width: 0px; fill: rgb(44, 160, 44); fill-opacity: 1;"/></g><g class="text"/></g><g class="trace scatter trace2cffd9" style="stroke-miterlimit: 2; opacity: 1;"><g class="fills"/><g class="errorbars"/><g class="lines"><path class="js-line" d="M24.82,22.43L111.52,21.75L198.23,22.43L284.93,21.75L371.63,26.51" style="vector-effect: none; fill: none; stroke: rgb(214, 39, 40); stroke-opacity: 1; stroke-width: 2px; opacity: 1;"/></g><g class="points"><path class="point" transform="translate(24.82,22.43)" d="M1.26,-1.73H5.33L2.03,0.66L3.29,4.53L0,2.14L-3.29,4.53L-2.03,0.66L-5.33,-1.73H-1.26L0,-5.6Z" style="opacity: 1; stroke-width: 0px; fill: rgb(214, 39, 40); fill-opacity: 1;"/><path class="point" transform="translate(111.52,21.75)" d="M1.26,-1.73H5.33L2.03,0.66L3.29,4.53L0,2.14L-3.29,4.53L-2.03,0.66L-5.33,-1.73H-1.26L0,-5.6Z" style="opacity: 1; stroke-width: 0px; fill: rgb(214, 39, 40); fill-opacity: 1;"/><path class="point" transform="translate(198.23,22.43)" d="M1.26,-1.73H5.33L2.03,0.66L3.29,4.53L0,2.14L-3.29,4.53L-2.03,0.66L-5.33,-1.73H-1.26L0,-5.6Z" style="opacity: 1; stroke-width: 0px; fill: rgb(214, 39, 40); fill-opacity: 1;"/><path class="point" transform="translate(284.93,21.75)" d="M1.26,-1.73H5.33L2.03,0.66L3.29,4.53L0,2.14L-3.29,4.53L-2.03,0.66L-5.33,-1.73H-1.26L0,-5.6Z" style="opacity: 1; stroke-width: 0px; fill: rgb(214, 39, 40); fill-opacity: 1;"/><path class="point" transform="translate(371.63,26.51)" d="M1.26,-1.73H5.33L2.03,0.66L3.29,4.53L0,2.14L-3.29,4.53L-2.03,0.66L-5.33,-1.73H-1.26L0,-5.6Z" style="opacity: 1; stroke-width: 0px; fill: rgb(214, 39, 40); fill-opacity: 1;"/></g><g class="text"/></g><g class="trace scatter traceeca863" style="stroke-miterlimit: 2; opacity: 1;"><g class="fills"/><g class="errorbars"/><g class="lines"><path class="js-line" d="M24.82,313.25L111.52,311.89L198.23,311.89L284.93,311.89L371.63,189.58" style="vector-effect: none; fill: none; stroke: rgb(148, 103, 189); stroke-opacity: 1; stroke-width: 2px; opacity: 1;"/></g><g class="points"><path class="point" transform="translate(24.82,313.25)" d="M5.2,0L0,5.2L-5.2,0L0,-5.2Z" style="opacity: 1; stroke-width: 0px; fill: rgb(148, 103, 189); fill-opacity: 1;"/><path class="point" transform="translate(111.52,311.89)" d="M5.2,0L0,5.2L-5.2,0L0,-5.2Z" style="opacity: 1; stroke-width: 0px; fill: rgb(148, 103, 189); fill-opacity: 1;"/><path class="point" transform="translate(198.23,311.89)" d="M5.2,0L0,5.2L-5.2,0L0,-5.2Z" style="opacity: 1; stroke-width: 0px; fill: rgb(148, 103, 189); fill-opacity: 1;"/><path class="point" transform="translate(284.93,311.89)" d="M5.2,0L0,5.2L-5.2,0L0,-5.2Z" style="opacity: 1; stroke-width: 0px; fill: rgb(148, 103, 189); fill-opacity: 1;"/><path class="point" transform="translate(371.63,189.58)" d="M5.2,0L0,5.2L-5.2,0L0,-5.2Z" style="opacity: 1; stroke-width: 0px; fill: rgb(148, 103, 189); fill-opacity: 1;"/></g><g class="text"/></g><g class="trace scatter trace5a91d7" style="stroke-miterlimit: 2; opacity: 1;"><g class="fills"/><g class="errorbars"/><g class="lines"><path class="js-line" d="M24.82,147.86L198.23,146.64L284.93,147.46L371.63,122.31" style="vector-effect: none; fill: none; stroke: rgb(140, 86, 75); stroke-opacity: 1; stroke-dasharray: 9px, 9px; stroke-width: 2px; opacity: 1;"/></g><g class="points"><path class="point" transform="translate(24.82,147.86)" d="M-3.04,0l-1.52,-2.64h3.04l1.52,-2.64l1.52,2.64h3.04l-1.52,2.64l1.52,2.64h-3.04l-1.52,2.64l-1.52,-2.64h-3.04Z" style="opacity: 1; stroke-width: 0px; fill: rgb(140, 86, 75); fill-opacity: 1;"/><path class="point" transform="translate(111.52,147.05)" d="M-3.04,0l-1.52,-2.64h3.04l1.52,-2.64l1.52,2.64h3.04l-1.52,2.64l1.52,2.64h-3.04l-1.52,2.64l-1.52,-2.64h-3.04Z" style="opacity: 1; stroke-width: 0px; fill: rgb(140, 86, 75); fill-opacity: 1;"/><path class="point" transform="translate(198.23,146.64)" d="M-3.04,0l-1.52,-2.64h3.04l1.52,-2.64l1.52,2.64h3.04l-1.52,2.64l1.52,2.64h-3.04l-1.52,2.64l-1.52,-2.64h-3.04Z" style="opacity: 1; stroke-width: 0px; fill: rgb(140, 86, 75); fill-opacity: 1;"/><path class="point" transform="translate(284.93,147.46)" d="M-3.04,0l-1.52,-2.64h3.04l1.52,-2.64l1.52,2.64h3.04l-1.52,2.64l1.52,2.64h-3.04l-1.52,2.64l-1.52,-2.64h-3.04Z" style="opacity: 1; stroke-width: 0px; fill: rgb(140, 86, 75); fill-opacity: 1;"/><path class="point" transform="translate(371.63,122.31)" d="M-3.04,0l-1.52,-2.64h3.04l1.52,-2.64l1.52,2.64h3.04l-1.52,2.64l1.52,2.64h-3.04l-1.52,2.64l-1.52,-2.64h-3.04Z" style="opacity: 1; stroke-width: 0px; fill: rgb(140, 86, 75); fill-opacity: 1;"/></g><g class="text"/></g></g></g><g class="overplot"/><path class="xlines-above crisp" d="M68,433.5H465.45" style="fill: none; stroke-width: 1px; stroke: rgb(36, 36, 36); stroke-opacity: 1;"/><path class="ylines-above crisp" d="M68.5,98V433" style="fill: none; stroke-width: 1px; stroke: rgb(36, 36, 36); stroke-opacity: 1;"/><g class="overlines-above"/><g class="xaxislayer-above"><path class="xtick ticks crisp" d="M0,434v5" transform="translate(93.82,0)" style="stroke: rgb(68, 68, 68); stroke-opacity: 1; stroke-width: 1px;"/><path class="xtick ticks crisp" d="M0,434v5" transform="translate(180.51999999999998,0)" style="stroke: rgb(68, 68, 68); stroke-opacity: 1; stroke-width: 1px;"/><path class="xtick ticks crisp" d="M0,434v5" transform="translate(267.23,0)" style="stroke: rgb(68, 68, 68); stroke-opacity: 1; stroke-width: 1px;"/><path class="xtick ticks crisp" d="M0,434v5" transform="translate(353.93,0)" style="stroke: rgb(68, 68, 68); stroke-opacity: 1; stroke-width: 1px;"/><path class="xtick ticks crisp" d="M0,434v5" transform="translate(440.63,0)" style="stroke: rgb(68, 68, 68); stroke-opacity: 1; stroke-width: 1px;"/><g class="xtick"><text text-anchor="middle" x="0" y="457" transform="translate(93.82,0)" style="font-family: 'Open Sans', verdana, arial, sans-serif; font-size: 15px; fill: rgb(36, 36, 36); fill-opacity: 1; white-space: pre; opacity: 1;">Baseline</text></g><g class="xtick"><text text-anchor="middle" x="0" y="457" transform="translate(180.51999999999998,0)" style="font-family: 'Open Sans', verdana, arial, sans-serif; font-size: 15px; fill: rgb(36, 36, 36); fill-opacity: 1; white-space: pre; opacity: 1;">PC</text></g><g class="xtick"><text text-anchor="middle" x="0" y="457" transform="translate(267.23,0)" style="font-family: 'Open Sans', verdana, arial, sans-serif; font-size: 15px; fill: rgb(36, 36, 36); fill-opacity: 1; white-space: pre; opacity: 1;">SPC</text></g><g class="xtick"><text text-anchor="middle" x="0" y="457" transform="translate(353.93,0)" style="font-family: 'Open Sans', verdana, arial, sans-serif; font-size: 15px; fill: rgb(36, 36, 36); fill-opacity: 1; white-space: pre; opacity: 1;">BST</text></g><g class="xtick"><text text-anchor="middle" x="0" y="457" transform="translate(440.63,0)" style="font-family: 'Open Sans', verdana, arial, sans-serif; font-size: 15px; fill: rgb(36, 36, 36); fill-opacity: 1; white-space: pre; opacity: 1;">JIC-best</text></g></g><g class="yaxislayer-above"><path class="ytick ticks crisp" d="M68,0h-5" transform="translate(0,426.2)" style="stroke: rgb(68, 68, 68); stroke-opacity: 1; stroke-width: 1px;"/><path class="ytick ticks crisp" d="M68,0h-5" transform="translate(0,358.25)" style="stroke: rgb(68, 68, 68); stroke-opacity: 1; stroke-width: 1px;"/><path class="ytick ticks crisp" d="M68,0h-5" transform="translate(0,290.3)" style="stroke: rgb(68, 68, 68); stroke-opacity: 1; stroke-width: 1px;"/><path class="ytick ticks crisp" d="M68,0h-5" transform="translate(0,222.35)" style="stroke: rgb(68, 68, 68); stroke-opacity: 1; stroke-width: 1px;"/><path class="ytick ticks crisp" d="M68,0h-5" transform="translate(0,154.4)" style="stroke: rgb(68, 68, 68); stroke-opacity: 1; stroke-width: 1px;"/><g class="ytick"><text text-anchor="end" x="60" y="5.25" transform="translate(0,426.2)" style="font-family: 'Open Sans', verdana, arial, sans-serif; font-size: 15px; fill: rgb(36, 36, 36); fill-opacity: 1; white-space: pre; opacity: 1;">0.5</text></g><g class="ytick"><text text-anchor="end" x="60" y="5.25" style="font-family: 'Open Sans', verdana, arial, sans-serif; font-size: 15px; fill: rgb(36, 36, 36); fill-opacity: 1; white-space: pre; opacity: 1;" transform="translate(0,358.25)">0.6</text></g><g class="ytick"><text text-anchor="end" x="60" y="5.25" style="font-family: 'Open Sans', verdana, arial, sans-serif; font-size: 15px; fill: rgb(36, 36, 36); fill-opacity: 1; white-space: pre; opacity: 1;" transform="translate(0,290.3)">0.7</text></g><g class="ytick"><text text-anchor="end" x="60" y="5.25" style="font-family: 'Open Sans', verdana, arial, sans-serif; font-size: 15px; fill: rgb(36, 36, 36); fill-opacity: 1; white-space: pre; opacity: 1;" transform="translate(0,222.35)">0.8</text></g><g class="ytick"><text text-anchor="end" x="60" y="5.25" style="font-family: 'Open Sans', verdana, arial, sans-serif; font-size: 15px; fill: rgb(36, 36, 36); fill-opacity: 1; white-space: pre; opacity: 1;" transform="translate(0,154.4)">0.9</text></g></g><g class="overaxes-above"/></g><g class="subplot x2y2"><g class="layer-subplot"><g class="shapelayer"/><g class="imagelayer"/></g><g class="minor-gridlayer"><g class="x2"/><g class="y2"/></g><g class="gridlayer"><g class="x2"><path class="x2grid crisp" transform="translate(578.37,0)" d="M0,98v335" style="stroke: rgb(211, 211, 211); stroke-opacity: 1; stroke-width: 0.5px;"/><path class="x2grid crisp" transform="translate(665.0699999999999,0)" d="M0,98v335" style="stroke: rgb(211, 211, 211); stroke-opacity: 1; stroke-width: 0.5px;"/><path class="x2grid crisp" transform="translate(751.78,0)" d="M0,98v335" style="stroke: rgb(211, 211, 211); stroke-opacity: 1; stroke-width: 0.5px;"/><path class="x2grid crisp" transform="translate(838.48,0)" d="M0,98v335" style="stroke: rgb(211, 211, 211); stroke-opacity: 1; stroke-width: 0.5px;"/><path class="x2grid crisp" transform="translate(925.18,0)" d="M0,98v335" style="stroke: rgb(211, 211, 211); stroke-opacity: 1; stroke-width: 0.5px;"/></g><g class="y2"><path class="y2grid crisp" transform="translate(0,419.18)" d="M553.55,0h396.45" style="stroke: rgb(211, 211, 211); stroke-opacity: 1; stroke-width: 0.5px;"/><path class="y2grid crisp" transform="translate(0,353.08000000000004)" d="M553.55,0h396.45" style="stroke: rgb(211, 211, 211); stroke-opacity: 1; stroke-width: 0.5px;"/><path class="y2grid crisp" transform="translate(0,286.98)" d="M553.55,0h396.45" style="stroke: rgb(211, 211, 211); stroke-opacity: 1; stroke-width: 0.5px;"/><path class="y2grid crisp" transform="translate(0,220.88)" d="M553.55,0h396.45" style="stroke: rgb(211, 211, 211); stroke-opacity: 1; stroke-width: 0.5px;"/><path class="y2grid crisp" transform="translate(0,154.78)" d="M553.55,0h396.45" style="stroke: rgb(211, 211, 211); stroke-opacity: 1; stroke-width: 0.5px;"/></g></g><g class="zerolinelayer"/><path class="xlines-below"/><path class="ylines-below"/><g class="overlines-below"/><g class="xaxislayer-below"/><g class="yaxislayer-below"/><g class="overaxes-below"/><g class="plot" transform="translate(553.55,98)" clip-path="url(#clip1d17f2x2y2plot)"><g class="scatterlayer mlayer"><g class="trace scatter trace9f21ca" style="stroke-miterlimit: 2; opacity: 1;"><g class="fills"/><g class="errorbars"/><g class="lines"><path class="js-line" d="M24.82,99.09L111.52,97.76L198.23,101.73L284.93,99.09L371.63,34.31" style="vector-effect: none; fill: none; stroke: rgb(31, 119, 180); stroke-opacity: 1; stroke-width: 2px; opacity: 1;"/></g><g class="points"><path class="point" transform="translate(24.82,99.09)" d="M4,0A4,4 0 1,1 0,-4A4,4 0 0,1 4,0Z" style="opacity: 1; stroke-width: 0px; fill: rgb(31, 119, 180); fill-opacity: 1;"/><path class="point" transform="translate(111.52,97.76)" d="M4,0A4,4 0 1,1 0,-4A4,4 0 0,1 4,0Z" style="opacity: 1; stroke-width: 0px; fill: rgb(31, 119, 180); fill-opacity: 1;"/><path class="point" transform="translate(198.23,101.73)" d="M4,0A4,4 0 1,1 0,-4A4,4 0 0,1 4,0Z" style="opacity: 1; stroke-width: 0px; fill: rgb(31, 119, 180); fill-opacity: 1;"/><path class="point" transform="translate(284.93,99.09)" d="M4,0A4,4 0 1,1 0,-4A4,4 0 0,1 4,0Z" style="opacity: 1; stroke-width: 0px; fill: rgb(31, 119, 180); fill-opacity: 1;"/><path class="point" transform="translate(371.63,34.31)" d="M4,0A4,4 0 1,1 0,-4A4,4 0 0,1 4,0Z" style="opacity: 1; stroke-width: 0px; fill: rgb(31, 119, 180); fill-opacity: 1;"/></g><g class="text"/></g><g class="trace scatter tracec4a247" style="stroke-miterlimit: 2; opacity: 1;"><g class="fills"/><g class="errorbars"/><g class="lines"><path class="js-line" d="M24.82,229.3L111.52,229.96L198.23,233.27L284.93,228.64L371.63,133.46" style="vector-effect: none; fill: none; stroke: rgb(255, 127, 14); stroke-opacity: 1; stroke-width: 2px; opacity: 1;"/></g><g class="points"><path class="point" transform="translate(24.82,229.3)" d="M4,4H-4V-4H4Z" style="opacity: 1; stroke-width: 0px; fill: rgb(255, 127, 14); fill-opacity: 1;"/><path class="point" transform="translate(111.52,229.96)" d="M4,4H-4V-4H4Z" style="opacity: 1; stroke-width: 0px; fill: rgb(255, 127, 14); fill-opacity: 1;"/><path class="point" transform="translate(198.23,233.27)" d="M4,4H-4V-4H4Z" style="opacity: 1; stroke-width: 0px; fill: rgb(255, 127, 14); fill-opacity: 1;"/><path class="point" transform="translate(284.93,228.64)" d="M4,4H-4V-4H4Z" style="opacity: 1; stroke-width: 0px; fill: rgb(255, 127, 14); fill-opacity: 1;"/><path class="point" transform="translate(371.63,133.46)" d="M4,4H-4V-4H4Z" style="opacity: 1; stroke-width: 0px; fill: rgb(255, 127, 14); fill-opacity: 1;"/></g><g class="text"/></g><g class="trace scatter tracea724ca" style="stroke-miterlimit: 2; opacity: 1;"><g class="fills"/><g class="errorbars"/><g class="lines"><path class="js-line" d="M24.82,311.93L111.52,311.93L198.23,313.25L284.93,312.59L371.63,238.56" style="vector-effect: none; fill: none; stroke: rgb(44, 160, 44); stroke-opacity: 1; stroke-width: 2px; opacity: 1;"/></g><g class="points"><path class="point" transform="translate(24.82,311.93)" d="M-4.62,2H4.62L0,-4Z" style="opacity: 1; stroke-width: 0px; fill: rgb(44, 160, 44); fill-opacity: 1;"/><path class="point" transform="translate(111.52,311.93)" d="M-4.62,2H4.62L0,-4Z" style="opacity: 1; stroke-width: 0px; fill: rgb(44, 160, 44); fill-opacity: 1;"/><path class="point" transform="translate(198.23,313.25)" d="M-4.62,2H4.62L0,-4Z" style="opacity: 1; stroke-width: 0px; fill: rgb(44, 160, 44); fill-opacity: 1;"/><path class="point" transform="translate(284.93,312.59)" d="M-4.62,2H4.62L0,-4Z" style="opacity: 1; stroke-width: 0px; fill: rgb(44, 160, 44); fill-opacity: 1;"/><path class="point" transform="translate(371.63,238.56)" d="M-4.62,2H4.62L0,-4Z" style="opacity: 1; stroke-width: 0px; fill: rgb(44, 160, 44); fill-opacity: 1;"/></g><g class="text"/></g><g class="trace scatter trace484390" style="stroke-miterlimit: 2; opacity: 1;"><g class="fills"/><g class="errorbars"/><g class="lines"><path class="js-line" d="M24.82,112.31L111.52,117.59L198.23,116.27L284.93,110.98L371.63,21.75" style="vector-effect: none; fill: none; stroke: rgb(214, 39, 40); stroke-opacity: 1; stroke-width: 2px; opacity: 1;"/></g><g class="points"><path class="point" transform="translate(24.82,112.31)" d="M1.26,-1.73H5.33L2.03,0.66L3.29,4.53L0,2.14L-3.29,4.53L-2.03,0.66L-5.33,-1.73H-1.26L0,-5.6Z" style="opacity: 1; stroke-width: 0px; fill: rgb(214, 39, 40); fill-opacity: 1;"/><path class="point" transform="translate(111.52,117.59)" d="M1.26,-1.73H5.33L2.03,0.66L3.29,4.53L0,2.14L-3.29,4.53L-2.03,0.66L-5.33,-1.73H-1.26L0,-5.6Z" style="opacity: 1; stroke-width: 0px; fill: rgb(214, 39, 40); fill-opacity: 1;"/><path class="point" transform="translate(198.23,116.27)" d="M1.26,-1.73H5.33L2.03,0.66L3.29,4.53L0,2.14L-3.29,4.53L-2.03,0.66L-5.33,-1.73H-1.26L0,-5.6Z" style="opacity: 1; stroke-width: 0px; fill: rgb(214, 39, 40); fill-opacity: 1;"/><path class="point" transform="translate(284.93,110.98)" d="M1.26,-1.73H5.33L2.03,0.66L3.29,4.53L0,2.14L-3.29,4.53L-2.03,0.66L-5.33,-1.73H-1.26L0,-5.6Z" style="opacity: 1; stroke-width: 0px; fill: rgb(214, 39, 40); fill-opacity: 1;"/><path class="point" transform="translate(371.63,21.75)" d="M1.26,-1.73H5.33L2.03,0.66L3.29,4.53L0,2.14L-3.29,4.53L-2.03,0.66L-5.33,-1.73H-1.26L0,-5.6Z" style="opacity: 1; stroke-width: 0px; fill: rgb(214, 39, 40); fill-opacity: 1;"/></g><g class="text"/></g><g class="trace scatter tracecaae40" style="stroke-miterlimit: 2; opacity: 1;"><g class="fills"/><g class="errorbars"/><g class="lines"><path class="js-line" d="M24.82,298.05L111.52,296.73L198.23,297.39L284.93,298.71L371.63,274.91" style="vector-effect: none; fill: none; stroke: rgb(148, 103, 189); stroke-opacity: 1; stroke-width: 2px; opacity: 1;"/></g><g class="points"><path class="point" transform="translate(24.82,298.05)" d="M5.2,0L0,5.2L-5.2,0L0,-5.2Z" style="opacity: 1; stroke-width: 0px; fill: rgb(148, 103, 189); fill-opacity: 1;"/><path class="point" transform="translate(111.52,296.73)" d="M5.2,0L0,5.2L-5.2,0L0,-5.2Z" style="opacity: 1; stroke-width: 0px; fill: rgb(148, 103, 189); fill-opacity: 1;"/><path class="point" transform="translate(198.23,297.39)" d="M5.2,0L0,5.2L-5.2,0L0,-5.2Z" style="opacity: 1; stroke-width: 0px; fill: rgb(148, 103, 189); fill-opacity: 1;"/><path class="point" transform="translate(284.93,298.71)" d="M5.2,0L0,5.2L-5.2,0L0,-5.2Z" style="opacity: 1; stroke-width: 0px; fill: rgb(148, 103, 189); fill-opacity: 1;"/><path class="point" transform="translate(371.63,274.91)" d="M5.2,0L0,5.2L-5.2,0L0,-5.2Z" style="opacity: 1; stroke-width: 0px; fill: rgb(148, 103, 189); fill-opacity: 1;"/></g><g class="text"/></g><g class="trace scatter trace302cf4" style="stroke-miterlimit: 2; opacity: 1;"><g class="fills"/><g class="errorbars"/><g class="lines"><path class="js-line" d="M24.82,210.13L111.52,210.8L198.23,212.38L284.93,210L371.63,135.05" style="vector-effect: none; fill: none; stroke: rgb(140, 86, 75); stroke-opacity: 1; stroke-dasharray: 9px, 9px; stroke-width: 2px; opacity: 1;"/></g><g class="points"><path class="point" transform="translate(24.82,210.13)" d="M-3.04,0l-1.52,-2.64h3.04l1.52,-2.64l1.52,2.64h3.04l-1.52,2.64l1.52,2.64h-3.04l-1.52,2.64l-1.52,-2.64h-3.04Z" style="opacity: 1; stroke-width: 0px; fill: rgb(140, 86, 75); fill-opacity: 1;"/><path class="point" transform="translate(111.52,210.8)" d="M-3.04,0l-1.52,-2.64h3.04l1.52,-2.64l1.52,2.64h3.04l-1.52,2.64l1.52,2.64h-3.04l-1.52,2.64l-1.52,-2.64h-3.04Z" style="opacity: 1; stroke-width: 0px; fill: rgb(140, 86, 75); fill-opacity: 1;"/><path class="point" transform="translate(198.23,212.38)" d="M-3.04,0l-1.52,-2.64h3.04l1.52,-2.64l1.52,2.64h3.04l-1.52,2.64l1.52,2.64h-3.04l-1.52,2.64l-1.52,-2.64h-3.04Z" style="opacity: 1; stroke-width: 0px; fill: rgb(140, 86, 75); fill-opacity: 1;"/><path class="point" transform="translate(284.93,210)" d="M-3.04,0l-1.52,-2.64h3.04l1.52,-2.64l1.52,2.64h3.04l-1.52,2.64l1.52,2.64h-3.04l-1.52,2.64l-1.52,-2.64h-3.04Z" style="opacity: 1; stroke-width: 0px; fill: rgb(140, 86, 75); fill-opacity: 1;"/><path class="point" transform="translate(371.63,135.05)" d="M-3.04,0l-1.52,-2.64h3.04l1.52,-2.64l1.52,2.64h3.04l-1.52,2.64l1.52,2.64h-3.04l-1.52,2.64l-1.52,-2.64h-3.04Z" style="opacity: 1; stroke-width: 0px; fill: rgb(140, 86, 75); fill-opacity: 1;"/></g><g class="text"/></g></g></g><g class="overplot"/><path class="xlines-above crisp" d="M552.55,433.5H950" style="fill: none; stroke-width: 1px; stroke: rgb(36, 36, 36); stroke-opacity: 1;"/><path class="ylines-above crisp" d="M553.05,98V433" style="fill: none; stroke-width: 1px; stroke: rgb(36, 36, 36); stroke-opacity: 1;"/><g class="overlines-above"/><g class="xaxislayer-above"><path class="x2tick ticks crisp" d="M0,434v5" transform="translate(578.37,0)" style="stroke: rgb(68, 68, 68); stroke-opacity: 1; stroke-width: 1px;"/><path class="x2tick ticks crisp" d="M0,434v5" transform="translate(665.0699999999999,0)" style="stroke: rgb(68, 68, 68); stroke-opacity: 1; stroke-width: 1px;"/><path class="x2tick ticks crisp" d="M0,434v5" transform="translate(751.78,0)" style="stroke: rgb(68, 68, 68); stroke-opacity: 1; stroke-width: 1px;"/><path class="x2tick ticks crisp" d="M0,434v5" transform="translate(838.48,0)" style="stroke: rgb(68, 68, 68); stroke-opacity: 1; stroke-width: 1px;"/><path class="x2tick ticks crisp" d="M0,434v5" transform="translate(925.18,0)" style="stroke: rgb(68, 68, 68); stroke-opacity: 1; stroke-width: 1px;"/><g class="x2tick"><text text-anchor="middle" x="0" y="457" transform="translate(578.37,0)" style="font-family: 'Open Sans', verdana, arial, sans-serif; font-size: 15px; fill: rgb(36, 36, 36); fill-opacity: 1; white-space: pre; opacity: 1;">Baseline</text></g><g class="x2tick"><text text-anchor="middle" x="0" y="457" transform="translate(665.0699999999999,0)" style="font-family: 'Open Sans', verdana, arial, sans-serif; font-size: 15px; fill: rgb(36, 36, 36); fill-opacity: 1; white-space: pre; opacity: 1;">PC</text></g><g class="x2tick"><text text-anchor="middle" x="0" y="457" transform="translate(751.78,0)" style="font-family: 'Open Sans', verdana, arial, sans-serif; font-size: 15px; fill: rgb(36, 36, 36); fill-opacity: 1; white-space: pre; opacity: 1;">SPC</text></g><g class="x2tick"><text text-anchor="middle" x="0" y="457" transform="translate(838.48,0)" style="font-family: 'Open Sans', verdana, arial, sans-serif; font-size: 15px; fill: rgb(36, 36, 36); fill-opacity: 1; white-space: pre; opacity: 1;">BST</text></g><g class="x2tick"><text text-anchor="middle" x="0" y="457" transform="translate(925.18,0)" style="font-family: 'Open Sans', verdana, arial, sans-serif; font-size: 15px; fill: rgb(36, 36, 36); fill-opacity: 1; white-space: pre; opacity: 1;">JIC-best</text></g></g><g class="yaxislayer-above"><path class="y2tick ticks crisp" d="M552.55,0h-5" transform="translate(0,419.18)" style="stroke: rgb(68, 68, 68); stroke-opacity: 1; stroke-width: 1px;"/><path class="y2tick ticks crisp" d="M552.55,0h-5" transform="translate(0,353.08000000000004)" style="stroke: rgb(68, 68, 68); stroke-opacity: 1; stroke-width: 1px;"/><path class="y2tick ticks crisp" d="M552.55,0h-5" transform="translate(0,286.98)" style="stroke: rgb(68, 68, 68); stroke-opacity: 1; stroke-width: 1px;"/><path class="y2tick ticks crisp" d="M552.55,0h-5" transform="translate(0,220.88)" style="stroke: rgb(68, 68, 68); stroke-opacity: 1; stroke-width: 1px;"/><path class="y2tick ticks crisp" d="M552.55,0h-5" transform="translate(0,154.78)" style="stroke: rgb(68, 68, 68); stroke-opacity: 1; stroke-width: 1px;"/><g class="y2tick"><text text-anchor="end" x="544.55" y="5.25" transform="translate(0,419.18)" style="font-family: 'Open Sans', verdana, arial, sans-serif; font-size: 15px; fill: rgb(36, 36, 36); fill-opacity: 1; white-space: pre; opacity: 1;">0.5</text></g><g class="y2tick"><text text-anchor="end" x="544.55" y="5.25" style="font-family: 'Open Sans', verdana, arial, sans-serif; font-size: 15px; fill: rgb(36, 36, 36); fill-opacity: 1; white-space: pre; opacity: 1;" transform="translate(0,353.08000000000004)">0.6</text></g><g class="y2tick"><text text-anchor="end" x="544.55" y="5.25" style="font-family: 'Open Sans', verdana, arial, sans-serif; font-size: 15px; fill: rgb(36, 36, 36); fill-opacity: 1; white-space: pre; opacity: 1;" transform="translate(0,286.98)">0.7</text></g><g class="y2tick"><text text-anchor="end" x="544.55" y="5.25" style="font-family: 'Open Sans', verdana, arial, sans-serif; font-size: 15px; fill: rgb(36, 36, 36); fill-opacity: 1; white-space: pre; opacity: 1;" transform="translate(0,220.88)">0.8</text></g><g class="y2tick"><text text-anchor="end" x="544.55" y="5.25" style="font-family: 'Open Sans', verdana, arial, sans-serif; font-size: 15px; fill: rgb(36, 36, 36); fill-opacity: 1; white-space: pre; opacity: 1;" transform="translate(0,154.78)">0.9</text></g></g><g class="overaxes-above"/></g></g><g class="polarlayer"/><g class="smithlayer"/><g class="ternarylayer"/><g class="geolayer"/><g class="funnelarealayer"/><g class="pielayer"/><g class="iciclelayer"/><g class="treemaplayer"/><g class="sunburstlayer"/><g class="glimages"/><defs id="topdefs-1d17f2"><g class="clips"/><clipPath id="legend1d17f2"><rect width="876" height="34" x="1" y="1"/></clipPath></defs><g class="layer-above"><g class="imagelayer"/><g class="shapelayer"/></g><g class="infolayer"><g class="legend" pointer-events="all" transform="translate(70.5,11.750000000000028)"><rect class="bg" shape-rendering="crispEdges" width="877" height="35" x="0.5" y="0.5" style="stroke: rgb(255, 255, 255); stroke-opacity: 1; fill: rgb(255, 255, 255); fill-opacity: 1; stroke-width: 1px;"/><g class="scrollbox" transform="" clip-path="url(#legend1d17f2)"><text class="legendtitletext" text-anchor="start" x="3" y="24.400000000000002" style="font-family: 'Open Sans', verdana, arial, sans-serif; font-size: 18px; fill: rgb(36, 36, 36); fill-opacity: 1; white-space: pre;">Big 5 P-Traits</text><g class="groups"><g class="traces" transform="translate(119.375,17.25)" style="opacity: 1;"><text class="legendtext" text-anchor="start" x="40" y="5.85" style="font-family: 'Open Sans', verdana, arial, sans-serif; font-size: 15px; fill: rgb(36, 36, 36); fill-opacity: 1; white-space: pre;">Openness</text><g class="layers" style="opacity: 1;"><g class="legendfill"/><g class="legendlines"><path class="js-line" d="M5,0h30" style="fill: none; stroke: rgb(31, 119, 180); stroke-opacity: 1; stroke-width: 2px;"/></g><g class="legendsymbols"><g class="legendpoints"><path class="scatterpts" transform="translate(20,0)" d="M4,0A4,4 0 1,1 0,-4A4,4 0 0,1 4,0Z" style="opacity: 1; stroke-width: 0px; fill: rgb(31, 119, 180); fill-opacity: 1;"/></g></g></g><rect class="legendtoggle" x="0" y="-11.25" width="110.890625" height="22.5" style="fill: rgb(0, 0, 0); fill-opacity: 0;"/></g><g class="traces" transform="translate(232.765625,17.25)" style="opacity: 1;"><text class="legendtext" text-anchor="start" x="40" y="5.85" style="font-family: 'Open Sans', verdana, arial, sans-serif; font-size: 15px; fill: rgb(36, 36, 36); fill-opacity: 1; white-space: pre;">Conscientiousness</text><g class="layers" style="opacity: 1;"><g class="legendfill"/><g class="legendlines"><path class="js-line" d="M5,0h30" style="fill: none; stroke: rgb(255, 127, 14); stroke-opacity: 1; stroke-width: 2px;"/></g><g class="legendsymbols"><g class="legendpoints"><path class="scatterpts" transform="translate(20,0)" d="M4,4H-4V-4H4Z" style="opacity: 1; stroke-width: 0px; fill: rgb(255, 127, 14); fill-opacity: 1;"/></g></g></g><rect class="legendtoggle" x="0" y="-11.25" width="168.40625" height="22.5" style="fill: rgb(0, 0, 0); fill-opacity: 0;"/></g><g class="traces" transform="translate(403.671875,17.25)" style="opacity: 1;"><text class="legendtext" text-anchor="start" x="40" y="5.85" style="font-family: 'Open Sans', verdana, arial, sans-serif; font-size: 15px; fill: rgb(36, 36, 36); fill-opacity: 1; white-space: pre;">Extraversion</text><g class="layers" style="opacity: 1;"><g class="legendfill"/><g class="legendlines"><path class="js-line" d="M5,0h30" style="fill: none; stroke: rgb(44, 160, 44); stroke-opacity: 1; stroke-width: 2px;"/></g><g class="legendsymbols"><g class="legendpoints"><path class="scatterpts" transform="translate(20,0)" d="M-4.62,2H4.62L0,-4Z" style="opacity: 1; stroke-width: 0px; fill: rgb(44, 160, 44); fill-opacity: 1;"/></g></g></g><rect class="legendtoggle" x="0" y="-11.25" width="125.875" height="22.5" style="fill: rgb(0, 0, 0); fill-opacity: 0;"/></g><g class="traces" transform="translate(532.046875,17.25)" style="opacity: 1;"><text class="legendtext" text-anchor="start" x="40" y="5.85" style="font-family: 'Open Sans', verdana, arial, sans-serif; font-size: 15px; fill: rgb(36, 36, 36); fill-opacity: 1; white-space: pre;">Agreeableness</text><g class="layers" style="opacity: 1;"><g class="legendfill"/><g class="legendlines"><path class="js-line" d="M5,0h30" style="fill: none; stroke: rgb(214, 39, 40); stroke-opacity: 1; stroke-width: 2px;"/></g><g class="legendsymbols"><g class="legendpoints"><path class="scatterpts" transform="translate(20,0)" d="M1.26,-1.73H5.33L2.03,0.66L3.29,4.53L0,2.14L-3.29,4.53L-2.03,0.66L-5.33,-1.73H-1.26L0,-5.6Z" style="opacity: 1; stroke-width: 0px; fill: rgb(214, 39, 40); fill-opacity: 1;"/></g></g></g><rect class="legendtoggle" x="0" y="-11.25" width="142.578125" height="22.5" style="fill: rgb(0, 0, 0); fill-opacity: 0;"/></g><g class="traces" transform="translate(677.125,17.25)" style="opacity: 1;"><text class="legendtext" text-anchor="start" x="40" y="5.85" style="font-family: 'Open Sans', verdana, arial, sans-serif; font-size: 15px; fill: rgb(36, 36, 36); fill-opacity: 1; white-space: pre;">Neuroticism</text><g class="layers" style="opacity: 1;"><g class="legendfill"/><g class="legendlines"><path class="js-line" d="M5,0h30" style="fill: none; stroke: rgb(148, 103, 189); stroke-opacity: 1; stroke-width: 2px;"/></g><g class="legendsymbols"><g class="legendpoints"><path class="scatterpts" transform="translate(20,0)" d="M5.2,0L0,5.2L-5.2,0L0,-5.2Z" style="opacity: 1; stroke-width: 0px; fill: rgb(148, 103, 189); fill-opacity: 1;"/></g></g></g><rect class="legendtoggle" x="0" y="-11.25" width="121.6875" height="22.5" style="fill: rgb(0, 0, 0); fill-opacity: 0;"/></g><g class="traces" transform="translate(801.3125,17.25)" style="opacity: 1;"><text class="legendtext" text-anchor="start" x="40" y="5.85" style="font-family: 'Open Sans', verdana, arial, sans-serif; font-size: 15px; fill: rgb(36, 36, 36); fill-opacity: 1; white-space: pre;">AVG</text><g class="layers" style="opacity: 1;"><g class="legendfill"/><g class="legendlines"><path class="js-line" d="M5,0h30" style="fill: none; stroke: rgb(140, 86, 75); stroke-opacity: 1; stroke-dasharray: 9px, 9px; stroke-width: 2px;"/></g><g class="legendsymbols"><g class="legendpoints"><path class="scatterpts" transform="translate(20,0)" d="M-3.04,0l-1.52,-2.64h3.04l1.52,-2.64l1.52,2.64h3.04l-1.52,2.64l1.52,2.64h-3.04l-1.52,2.64l-1.52,-2.64h-3.04Z" style="opacity: 1; stroke-width: 0px; fill: rgb(140, 86, 75); fill-opacity: 1;"/></g></g></g><rect class="legendtoggle" x="0" y="-11.25" width="73.078125" height="22.5" style="fill: rgb(0, 0, 0); fill-opacity: 0;"/></g></g></g><rect class="scrollbar" rx="20" ry="3" width="0" height="0" x="0" y="0" style="fill: rgb(128, 139, 164); fill-opacity: 1;"/></g><g class="g-gtitle"/><g class="g-xtitle"><text class="xtitle" x="267.225" y="487.1" text-anchor="middle" style="font-family: 'Open Sans', verdana, arial, sans-serif; font-size: 18px; fill: rgb(36, 36, 36); opacity: 1; font-weight: normal; white-space: pre;">Datasets</text></g><g class="g-x2title"/><g class="g-ytitle" transform="translate(3.958984375,0)"><text class="ytitle" transform="rotate(-90,12.040624999999999,265.5)" x="12.040624999999999" y="265.5" text-anchor="middle" style="font-family: 'Open Sans', verdana, arial, sans-serif; font-size: 18px; fill: rgb(36, 36, 36); opacity: 1; font-weight: normal; white-space: pre;">Personality Traits Score</text></g><g class="g-y2title"/><g class="annotation" data-index="0" style="opacity: 1;"><g class="annotation-text-g" transform="rotate(0,267.225,87.5)"><g class="cursor-pointer" transform="translate(197,77)"><rect class="bg" x="0.5" y="0.5" width="140" height="20" style="stroke-width: 1px; stroke: rgb(0, 0, 0); stroke-opacity: 0; fill: rgb(0, 0, 0); fill-opacity: 0;"/><text class="annotation-text" text-anchor="middle" x="69.953125" y="16" style="font-family: 'Open Sans', verdana, arial, sans-serif; font-size: 15px; fill: rgb(36, 36, 36); fill-opacity: 1; white-space: pre;">LLaMA 3 8B Instruct</text></g></g></g><g class="annotation" data-index="1" style="opacity: 1;"><g class="annotation-text-g" transform="rotate(0,751.775,87.5)"><g class="cursor-pointer" transform="translate(673,77)"><rect class="bg" x="0.5" y="0.5" width="156" height="20" style="stroke-width: 1px; stroke: rgb(0, 0, 0); stroke-opacity: 0; fill: rgb(0, 0, 0); fill-opacity: 0;"/><text class="annotation-text" text-anchor="middle" x="78.28125" y="16" style="font-family: 'Open Sans', verdana, arial, sans-serif; font-size: 15px; fill: rgb(36, 36, 36); fill-opacity: 1; white-space: pre;">Mistral 7B Instruct v0.3</text></g></g></g></g></svg>